<?xml version="1.0" encoding="UTF-8"?>
<svg height="16px" viewBox="0 0 16 16" width="16px" xmlns="http://www.w3.org/2000/svg" xmlns:xlink="http://www.w3.org/1999/xlink">
    <filter id="a" height="100%" width="100%" x="0%" y="0%">
        <feColorMatrix color-interpolation-filters="sRGB" values="0 0 0 0 1 0 0 0 0 1 0 0 0 0 1 0 0 0 1 0"/>
    </filter>
    <mask id="b">
        <g filter="url(#a)">
            <rect fill-opacity="0.154" height="19.2" width="19.2" x="-1.6" y="-1.6"/>
        </g>
    </mask>
    <clipPath id="c">
        <rect height="152" width="192"/>
    </clipPath>
    <mask id="d">
        <g filter="url(#a)">
            <rect fill-opacity="0.154" height="19.2" width="19.2" x="-1.6" y="-1.6"/>
        </g>
    </mask>
    <clipPath id="e">
        <rect height="152" width="192"/>
    </clipPath>
    <mask id="f">
        <g filter="url(#a)">
            <rect fill-opacity="0.35" height="19.2" width="19.2" x="-1.6" y="-1.6"/>
        </g>
    </mask>
    <radialGradient id="g" cx="85.117647" cy="53.999992" gradientUnits="userSpaceOnUse" r="29.937637">
        <stop offset="0" stop-color="#ffffff"/>
        <stop offset="0.271152" stop-color="#ffffff" stop-opacity="0.866667"/>
        <stop offset="1" stop-color="#ffffff" stop-opacity="0"/>
    </radialGradient>
    <clipPath id="h">
        <rect height="152" width="192"/>
    </clipPath>
    <g mask="url(#b)">
        <g clip-path="url(#c)" transform="matrix(1 0 0 1 -168 -16)">
            <path d="m 11.891069 268.55077 l 15.457032 -15.457031" fill="none" stroke="#ffffff" stroke-linecap="round" stroke-width="1.63784" transform="matrix(-1 0 0 1 143.117632 -149.999989)"/>
        </g>
    </g>
    <g mask="url(#d)">
        <g clip-path="url(#e)" transform="matrix(1 0 0 1 -168 -16)">
            <path d="m -131.99954 316.117657 l 16 -16" fill="none" stroke="#ffffff" stroke-linecap="round" stroke-width="2" transform="matrix(-1 0 0 1 0.117647 -197.117657)"/>
        </g>
    </g>
    <g mask="url(#f)">
        <g clip-path="url(#h)" transform="matrix(1 0 0 1 -168 -16)">
            <path d="m 115.054688 76.0625 c 0 16.535156 -13.402344 29.9375 -29.9375 29.9375 c -16.535157 0 -29.9375 -13.402344 -29.9375 -29.9375 s 13.402343 -29.9375 29.9375 -29.9375 c 16.535156 0 29.9375 13.402344 29.9375 29.9375 z m 0 0" fill="url(#g)"/>
        </g>
    </g>
    <g fill="#241f31" fill-rule="evenodd">
        <path d="m 16 15 h -9 v -10 h 9 l -3 5 z m 0 0"/>
        <path d="m 0 1 h 11 v 3 h -5 v 7 h -6 l 3 -5 z m 0 0"/>
    </g>
</svg>
