<?xml version="1.0" encoding="UTF-8" standalone="no"?>
<svg
   height="128px"
   viewBox="0 0 128 128"
   width="128px"
   version="1.1"
   id="svg52"
   sodipodi:docname="io.github.cleomenezesjr.Serigy.svg"
   inkscape:version="1.4 (e7c3feb100, 2024-10-09)"
   xmlns:inkscape="http://www.inkscape.org/namespaces/inkscape"
   xmlns:sodipodi="http://sodipodi.sourceforge.net/DTD/sodipodi-0.dtd"
   xmlns:xlink="http://www.w3.org/1999/xlink"
   xmlns="http://www.w3.org/2000/svg"
   xmlns:svg="http://www.w3.org/2000/svg">
  <defs
     id="defs52">
    <linearGradient
       inkscape:collect="always"
       xlink:href="#linearGradient24"
       id="linearGradient25"
       x1="86"
       y1="262"
       x2="97.5625"
       y2="273.5625"
       gradientUnits="userSpaceOnUse"
       gradientTransform="translate(20,-186.00195)" />
    <linearGradient
       id="linearGradient24"
       inkscape:collect="always">
      <stop
         style="stop-color:#f0f0f0;stop-opacity:1;"
         offset="0"
         id="stop24" />
      <stop
         style="stop-color:#fffefd;stop-opacity:1;"
         offset="1"
         id="stop25-3" />
    </linearGradient>
    <linearGradient
       inkscape:collect="always"
       xlink:href="#linearGradient7"
       id="linearGradient8"
       x1="64"
       y1="176.00195"
       x2="64"
       y2="203.99805"
       gradientUnits="userSpaceOnUse" />
    <linearGradient
       id="linearGradient7"
       inkscape:collect="always">
      <stop
         style="stop-color:#c0bfbc;stop-opacity:1;"
         offset="0"
         id="stop7-6" />
      <stop
         style="stop-color:#c7c6c3;stop-opacity:1;"
         offset="0.14278761"
         id="stop14-7" />
      <stop
         style="stop-color:#888785;stop-opacity:1;"
         offset="0.26782474"
         id="stop13-5" />
      <stop
         style="stop-color:#c0bfbc;stop-opacity:1;"
         offset="0.36158782"
         id="stop9-3" />
      <stop
         style="stop-color:#f6f4f0;stop-opacity:1;"
         offset="0.48660529"
         id="stop10-5" />
      <stop
         style="stop-color:#c0bfbc;stop-opacity:1;"
         offset="0.71878052"
         id="stop11-6" />
      <stop
         style="stop-color:#c0bfbc;stop-opacity:1;"
         offset="0.90630668"
         id="stop12-2" />
      <stop
         style="stop-color:#d2d1ce;stop-opacity:1;"
         offset="1"
         id="stop8-9" />
    </linearGradient>
    <inkscape:path-effect
       effect="fillet_chamfer"
       id="path-effect5"
       is_visible="true"
       lpeversion="1"
       nodesatellites_param="F,0,1,1,0,4,0,1 @ F,0,1,1,0,4,0,1 @ F,0,1,1,0,4,0,1 @ F,0,1,1,0,4,0,1 @ F,0,1,1,0,4,0,1 @ F,0,1,1,0,4,0,1 @ F,0,1,1,0,4,0,1 @ F,0,0,1,0,4,0,1"
       radius="0"
       unit="px"
       method="auto"
       mode="F"
       chamfer_steps="1"
       flexible="false"
       use_knot_distance="true"
       apply_no_radius="true"
       apply_with_radius="true"
       only_selected="false"
       hide_knots="false" />
    <linearGradient
       inkscape:collect="always"
       xlink:href="#linearGradient22"
       id="linearGradient23"
       x1="50"
       y1="222"
       x2="79.125"
       y2="251.125"
       gradientUnits="userSpaceOnUse"
       gradientTransform="translate(20,-186.00195)" />
    <linearGradient
       id="linearGradient22"
       inkscape:collect="always">
      <stop
         style="stop-color:#3584e4;stop-opacity:1;"
         offset="0"
         id="stop22" />
      <stop
         style="stop-color:#33d17a;stop-opacity:1"
         offset="1"
         id="stop23" />
    </linearGradient>
    <linearGradient
       inkscape:collect="always"
       xlink:href="#linearGradient1351-3"
       id="linearGradient1574"
       gradientUnits="userSpaceOnUse"
       gradientTransform="matrix(0.25,0,0,0.25,180,83)"
       x1="344"
       y1="76"
       x2="340"
       y2="72" />
    <linearGradient
       inkscape:collect="always"
       id="linearGradient1351-3">
      <stop
         style="stop-color:#d5d3cf;stop-opacity:1"
         offset="0"
         id="stop1347" />
      <stop
         style="stop-color:#ffffff;stop-opacity:1"
         offset="1"
         id="stop1349-6" />
    </linearGradient>
    <clipPath
       clipPathUnits="userSpaceOnUse"
       id="clipPath1609-3">
      <path
         sodipodi:nodetypes="cccccc"
         inkscape:connector-curvature="0"
         id="path1611-6"
         d="m 252,116 28,-28 v -8 h -36 v 36 z"
         style="fill:#e74747;stroke:none;stroke-width:0.25px;stroke-linecap:butt;stroke-linejoin:miter;stroke-opacity:1" />
    </clipPath>
  </defs>
  <sodipodi:namedview
     id="namedview52"
     pagecolor="#ffffff"
     bordercolor="#000000"
     borderopacity="0.25"
     inkscape:showpageshadow="2"
     inkscape:pageopacity="0.0"
     inkscape:pagecheckerboard="0"
     inkscape:deskcolor="#d1d1d1"
     inkscape:zoom="3.125"
     inkscape:cx="33.6"
     inkscape:cy="98.56"
     inkscape:window-width="1920"
     inkscape:window-height="1011"
     inkscape:window-x="0"
     inkscape:window-y="0"
     inkscape:window-maximized="1"
     inkscape:current-layer="svg52" />
  <filter
     id="a"
     height="1"
     width="1"
     x="0"
     y="0">
    <feColorMatrix
       color-interpolation-filters="sRGB"
       values="0 0 0 0 1 0 0 0 0 1 0 0 0 0 1 0 0 0 1 0"
       id="feColorMatrix1" />
  </filter>
  <linearGradient
     id="b"
     gradientTransform="matrix(1 -0 -0 -1 24 307.999981)"
     gradientUnits="userSpaceOnUse"
     x1="46"
     x2="26"
     y1="276"
     y2="276">
    <stop
       offset="0"
       stop-color="#c92165"
       id="stop1" />
    <stop
       offset="1"
       stop-color="#df3e7e"
       id="stop2" />
  </linearGradient>
  <linearGradient
     id="c"
     gradientUnits="userSpaceOnUse"
     x1="62"
     x2="74"
     y1="61.999985"
     y2="61.999985">
    <stop
       offset="0"
       stop-color="#df3e7e"
       id="stop3" />
    <stop
       offset="0.333333"
       stop-color="#e878a5"
       id="stop4" />
    <stop
       offset="1"
       stop-color="#df3e7e"
       id="stop5" />
  </linearGradient>
  <linearGradient
     id="d"
     gradientUnits="userSpaceOnUse"
     x1="62"
     x2="70"
     y1="26.000977"
     y2="26.000977">
    <stop
       offset="0"
       stop-color="#b0265e"
       id="stop6" />
    <stop
       offset="1"
       stop-color="#ea81aa"
       id="stop7" />
  </linearGradient>
  <linearGradient
     id="e"
     gradientTransform="matrix(1 -0 -0 -1 0 327.999981)"
     gradientUnits="userSpaceOnUse"
     x1="46"
     x2="26"
     y1="276"
     y2="276">
    <stop
       offset="0"
       stop-color="#038ddd"
       id="stop8" />
    <stop
       offset="1"
       stop-color="#44c5e6"
       id="stop9" />
  </linearGradient>
  <linearGradient
     id="f"
     gradientUnits="userSpaceOnUse"
     x1="38"
     x2="50"
     y1="81.999985"
     y2="81.999985">
    <stop
       offset="0"
       stop-color="#26adcf"
       id="stop10" />
    <stop
       offset="0.333333"
       stop-color="#85dbee"
       id="stop11" />
    <stop
       offset="1"
       stop-color="#44c5e6"
       id="stop12" />
  </linearGradient>
  <linearGradient
     id="g"
     gradientUnits="userSpaceOnUse"
     x1="38"
     x2="46"
     y1="46.000977"
     y2="46.000977">
    <stop
       offset="0"
       stop-color="#0e82c0"
       id="stop13" />
    <stop
       offset="1"
       stop-color="#1da8d7"
       id="stop14" />
  </linearGradient>
  <clipPath
     id="h">
    <path
       d="m 47 30 h 61 v 60 h -61 z m 0 0"
       id="path14" />
  </clipPath>
  <clipPath
     id="i">
    <path
       d="m 107.054688 60.0625 c 0 16.535156 -13.402344 29.9375 -29.9375 29.9375 c -16.535157 0 -29.9375 -13.402344 -29.9375 -29.9375 s 13.402343 -29.9375 29.9375 -29.9375 c 16.535156 0 29.9375 13.402344 29.9375 29.9375 z m 0 0"
       id="path15" />
  </clipPath>
  <clipPath
     id="j">
    <path
       d="m 47 30 h 61 v 15 h -61 z m 0 0"
       id="path16" />
  </clipPath>
  <clipPath
     id="k">
    <path
       d="m 107.054688 60.0625 c 0 16.535156 -13.402344 29.9375 -29.9375 29.9375 c -16.535157 0 -29.9375 -13.402344 -29.9375 -29.9375 s 13.402343 -29.9375 29.9375 -29.9375 c 16.535156 0 29.9375 13.402344 29.9375 29.9375 z m 0 0"
       id="path17" />
  </clipPath>
  <clipPath
     id="l">
    <path
       d="m 47 30 h 61 v 60 h -61 z m 0 0"
       id="path18" />
  </clipPath>
  <clipPath
     id="m">
    <path
       d="m 107.054688 60.0625 c 0 16.535156 -13.402344 29.9375 -29.9375 29.9375 c -16.535157 0 -29.9375 -13.402344 -29.9375 -29.9375 s 13.402343 -29.9375 29.9375 -29.9375 c 16.535156 0 29.9375 13.402344 29.9375 29.9375 z m 0 0"
       id="path19" />
  </clipPath>
  <mask
     id="n">
    <g
       filter="url(#a)"
       id="g19">
      <rect
         fill-opacity="0.768678"
         height="153.6"
         width="153.6"
         x="-12.8"
         y="-12.8"
         id="rect19" />
    </g>
  </mask>
  <linearGradient
     id="o"
     gradientTransform="matrix(0 1.714284 1.714284 0 -356.02499 -2.060453)"
     gradientUnits="userSpaceOnUse"
     x1="24"
     x2="38"
     y1="238"
     y2="238">
    <stop
       offset="0"
       stop-color="#ffffff"
       id="stop19" />
    <stop
       offset="1"
       stop-color="#ffffff"
       stop-opacity="0"
       id="stop20" />
  </linearGradient>
  <clipPath
     id="p">
    <rect
       height="152"
       width="192"
       id="rect20" />
  </clipPath>
  <mask
     id="q">
    <g
       filter="url(#a)"
       id="g21">
      <rect
         fill-opacity="0.154"
         height="153.6"
         width="153.6"
         x="-12.8"
         y="-12.8"
         id="rect21" />
    </g>
  </mask>
  <clipPath
     id="r">
    <rect
       height="152"
       width="192"
       id="rect22" />
  </clipPath>
  <mask
     id="s">
    <g
       filter="url(#a)"
       id="g23">
      <rect
         fill-opacity="0.154"
         height="153.6"
         width="153.6"
         x="-12.8"
         y="-12.8"
         id="rect23" />
    </g>
  </mask>
  <clipPath
     id="t">
    <rect
       height="152"
       width="192"
       id="rect24" />
  </clipPath>
  <mask
     id="u">
    <g
       filter="url(#a)"
       id="g25">
      <rect
         fill-opacity="0.35"
         height="153.6"
         width="153.6"
         x="-12.8"
         y="-12.8"
         id="rect25" />
    </g>
  </mask>
  <radialGradient
     id="v"
     cx="85.117647"
     cy="53.999992"
     gradientUnits="userSpaceOnUse"
     r="29.937637">
    <stop
       offset="0"
       stop-color="#ffffff"
       id="stop25" />
    <stop
       offset="0.271152"
       stop-color="#ffffff"
       stop-opacity="0.866667"
       id="stop26" />
    <stop
       offset="1"
       stop-color="#ffffff"
       stop-opacity="0"
       id="stop27" />
  </radialGradient>
  <clipPath
     id="w">
    <rect
       height="152"
       width="192"
       id="rect27" />
  </clipPath>
  <g
     id="g52"
     transform="translate(-20,16.000975)">
    <rect
       style="font-variation-settings:'opsz' 32;display:inline;fill:#986a44;stroke:none;stroke-linecap:round;-inkscape-stroke:none;paint-order:stroke markers fill;enable-background:new"
       id="rect1"
       width="88"
       height="106"
       x="40"
       y="-0.0019499999"
       rx="7.9828949"
       ry="7.9828949"
       inkscape:export-filename="rect1.svg"
       inkscape:export-xdpi="105.93282"
       inkscape:export-ydpi="105.93282" />
    <rect
       style="font-variation-settings:'opsz' 32;display:inline;fill:#b5835a;stroke:none;stroke-linecap:round;-inkscape-stroke:none;paint-order:stroke markers fill;enable-background:new"
       id="rect5"
       width="88"
       height="104"
       x="40"
       y="-2.00195"
       rx="7.9828949"
       ry="7.9828949" />
    <path
       id="rect7"
       style="font-variation-settings:'opsz' 32;display:inline;fill:#c0bfbc;stroke-width:2.04903;stroke-linecap:round;paint-order:stroke markers fill;enable-background:new"
       d="M 52.360597,9.99805 H 115.6394 c 2.41577,0 4.3606,1.94483 4.3606,4.3606 v 77.2788 c 0,2.41577 -1.94483,4.3606 -4.3606,4.3606 H 52.360597 C 49.944826,95.99805 48,94.05322 48,91.63745 v -77.2788 c 0,-2.41577 1.944826,-4.3606 4.360597,-4.3606 z"
       sodipodi:nodetypes="sssssssss" />
    <path
       id="rect6"
       style="font-variation-settings:'opsz' 32;display:inline;fill:#deddda;stroke-width:2.04903;stroke-linecap:round;paint-order:stroke markers fill;enable-background:new"
       d="M 52.360597,7.99805 H 115.6394 c 2.41577,0 4.3606,1.94483 4.3606,4.3606 v 77.2788 c 0,2.41577 -1.94483,4.3606 -4.3606,4.3606 H 52.360597 C 49.944826,93.99805 48,92.05322 48,89.63745 v -77.2788 c 0,-2.41577 1.944826,-4.3606 4.360597,-4.3606 z"
       sodipodi:nodetypes="sssssssss" />
    <path
       id="path25"
       style="font-variation-settings:'opsz' 32;display:inline;fill:#f6f5f4;fill-opacity:1;stroke-width:2.04903;stroke-linecap:round;paint-order:stroke markers fill;enable-background:new"
       d="M 52.360597,5.99805 H 115.6394 c 2.41577,0 4.3606,1.94483 4.3606,4.3606 v 77.2788 c 0,2.41577 -1.94483,4.3606 -4.3606,4.3606 H 52.360597 C 49.944826,91.99805 48,90.05322 48,87.63745 v -77.2788 c 0,-2.41577 1.944826,-4.3606 4.360597,-4.3606 z"
       sodipodi:nodetypes="sssssssss" />
    <path
       id="rect4"
       style="font-variation-settings:'opsz' 32;display:inline;fill:url(#linearGradient25);fill-opacity:1;stroke-width:2.04903;stroke-linecap:round;paint-order:stroke markers fill;enable-background:new"
       d="m 120,63.99805 v 23.6394 c 0,2.41577 -1.94483,4.3606 -4.3606,4.3606 H 92 Z"
       sodipodi:nodetypes="csscc" />
    <path
       id="path14-1"
       style="font-variation-settings:'opsz' 32;display:inline;opacity:0.45795;fill-opacity:0.104412;stroke-width:0.933722;stroke-linecap:round;paint-order:stroke markers fill;enable-background:new"
       d="m 64.999999,5.9980433 -0.86953,8.0816717 c -0.136759,1.233602 0.274699,2.519056 1.102604,3.44375 0.827906,0.924733 2.059098,1.474679 3.30026,1.474582 h 30.933334 c 1.241163,9.7e-5 2.472353,-0.549849 3.300263,-1.474543 0.8279,-0.924694 1.23936,-2.210148 1.1026,-3.44375 L 103,5.9980433 Z"
       sodipodi:nodetypes="cccccsccc" />
    <path
       id="rect2"
       style="font-variation-settings:'opsz' 32;display:inline;fill:url(#linearGradient8);fill-opacity:1;stroke:none;stroke-width:0.965919;stroke-linecap:round;-inkscape-stroke:none;paint-order:stroke markers fill;enable-background:new"
       d="M 56,180.00195 V 182 a 4,4 135 0 1 -4,4 h -2 a 4.4691135,4.4691135 138.17044 0 0 -4.441773,3.97553 l -1.116454,10.04699 A 3.5801283,3.5801283 48.170437 0 0 48,203.99805 l 32,0 a 3.5801283,3.5801283 131.82956 0 0 3.558227,-3.97553 L 82.441773,189.97553 A 4.4691135,4.4691135 41.829563 0 0 78,186 h -2 a 4,4 45 0 1 -4,-4 v -1.99805 a 4,4 45 0 0 -4,-4 h -8 a 4,4 135 0 0 -4,4 z"
       sodipodi:nodetypes="ccccccccc"
       transform="translate(20,-186.00195)"
       inkscape:original-d="M 56,176.00195 V 186 H 46 l -2,17.99805 H 84 L 82,186 H 72 v -9.99805 z"
       inkscape:path-effect="#path-effect5" />
    <path
       id="rect21-2"
       style="font-variation-settings:'opsz' 32;display:inline;fill:url(#linearGradient23);fill-opacity:1;stroke-width:2;stroke-linecap:round;paint-order:stroke markers fill;enable-background:new"
       d="m 66,53.99805 h 16 v 16 H 66 Z m 20,-20 h 16 v 16 H 86 Z m -20,0 h 16 v 16 H 66 Z m 27.071794,20 13.856406,8 -8,13.85641 -13.856406,-8 z" />
    <rect
       clip-path="url(#clipPath1609-3)"
       transform="matrix(0,1,1,0,4,-188.00195)"
       ry="8"
       rx="8"
       y="88"
       x="252"
       height="36"
       width="36"
       id="rect1570"
       style="display:inline;fill:url(#linearGradient1574);fill-opacity:1;stroke:none;stroke-width:0.5;stroke-linecap:butt;stroke-linejoin:miter;stroke-miterlimit:4;stroke-dasharray:none;stroke-dashoffset:0;stroke-opacity:1;marker:none;marker-start:none;marker-mid:none;marker-end:none;paint-order:normal;enable-background:new" />
    <path
       id="path15-7"
       style="font-variation-settings:'opsz' 32;display:inline;fill:#bcbbb8;fill-opacity:1;stroke:none;stroke-width:0.965919;stroke-linecap:round;-inkscape-stroke:none;paint-order:stroke markers fill;enable-background:new"
       d="m 64.464844,13.81641 -0.02344,0.20508 A 3.5801283,3.5801283 0 0 0 68,17.9961 h 32 a 3.5801283,3.5801283 0 0 0 3.55859,-3.97461 l -0.0137,-0.11719 A 3.5801283,3.5801283 0 0 1 100,17.01172 H 68 a 3.5801283,3.5801283 0 0 1 -3.535156,-3.19531 z" />
  </g>
</svg>
